<svg id="Layer_1" data-name="Layer 1" xmlns="http://www.w3.org/2000/svg" viewBox="0 0 336 336"><defs><style>.cls-1,.cls-2{stroke:#000;stroke-miterlimit:10;stroke-width:3px;}.cls-2{fill:#fefefe;}</style></defs><title>den (1)</title><circle class="cls-1" cx="168" cy="168" r="166.5"/><path class="cls-2" d="M214.6,198.7c9.2-4,18.1-7.8,27-11.7,20.6-8.9,41.3-17.8,61.9-26.7q26.55-11.4,53-22.9c4.9-2.1,4.8-2.2,6.3,3,2.9,10.5,2.8,10.3-7.3,14.6-21,8.9-42,18-63,27-23.1,10-46.2,19.9-69.4,29.9-5.6,2.4-11.2,4.7-16.6,7.3-2.3,1.1-3.2,1.2-3.9-1.8-3-14-6.3-28-9.3-42-1-4.4-.8-4.4-5.1-3C148.8,185,109.4,197.5,70,210.2c-2.5.8-3.4.5-3.6-2.2a39.85,39.85,0,0,0-1.4-8.4c-.9-3.3.3-4.4,3.3-5.4q66.45-21,132.8-42.3c2.8-.9,3,.3,3.5,2.2C207.9,168.9,211.2,183.6,214.6,198.7Z" transform="translate(-46.6 -10)"/><path class="cls-2" d="M186.8,233.4a7.71,7.71,0,0,1-2.7,5.6c-4.2,4.2-8.4,8.5-12.7,12.6-1.4,1.4-1.6,2.2-.1,3.6q6.45,6.15,12.6,12.6c3.5,3.5,3.7,8,.6,11-3.1,3.2-7.3,3.1-11-.5-4.2-4-8.4-8.1-12.3-12.4-1.8-1.9-2.7-1.6-4.4.1-3.9,4.2-8,8.1-12.1,12.1-3.5,3.5-8,3.8-11,.8s-3-7.4.5-11.1c4-4.2,8.2-8.3,12.4-12.4,1.6-1.5,1.9-2.4.1-4-4.4-4.1-8.7-8.5-12.9-12.9-2.4-2.5-3.3-5.5-1.4-8.8,1.7-3,4.3-4.2,7.8-3.8a7.42,7.42,0,0,1,4.5,2.6c4.1,4.1,8.3,8.2,12.3,12.4,1.5,1.6,2.4,1.9,4.1.1,4.1-4.4,8.5-8.7,12.8-12.9a7.3,7.3,0,0,1,8.5-1.6A7.07,7.07,0,0,1,186.8,233.4Z" transform="translate(-46.6 -10)"/><path class="cls-2" d="M133.2,116.7c2.4-.3,6.2,1.3,8.1-.6s.4-5.6.6-8.6c.2-2.8,0-5.7.3-8.5a7,7,0,0,1,7.6-6,7.12,7.12,0,0,1,6.9,6.9c.2,4.6.2,9.3,0,13.9-.1,2.4.7,3,3,2.9,4.3-.2,8.6-.1,12.8,0,4.7.1,7.7,2.8,7.8,6.9.1,4.4-2.7,7.5-7.5,7.8-3,.2-5.9,0-8.9,0-7.3,0-7.3,0-7.3,7.4v8.6c-.1,4.3-2.9,7.3-6.9,7.6a7.05,7.05,0,0,1-7.7-6.7c-.3-4.6-.3-9.3-.2-13.9.1-2.3-.5-3.1-2.9-3-4.7.1-9.5.1-14.3-.2a6.92,6.92,0,0,1-6.4-7.6,7.5,7.5,0,0,1,6.9-6.9h8.1Z" transform="translate(-46.6 -10)"/><path class="cls-2" d="M271.5,260.9c-7.7,0-15.5.1-23.2,0-4.2-.1-6.9-2.3-7.7-6a7.31,7.31,0,0,1,3.9-8,8.37,8.37,0,0,1,4.1-.8h45.3c5.2,0,8.6,3,8.6,7.4s-3.3,7.4-8.5,7.4C286.5,261,279,260.9,271.5,260.9Z" transform="translate(-46.6 -10)"/><path class="cls-2" d="M273.7,116.7h22.8c4.8,0,8.1,2.8,8.2,7,.2,4.4-3,7.7-7.9,7.8-15.4.1-30.9.1-46.3,0-4.6,0-7.4-2.7-7.8-6.7a7.31,7.31,0,0,1,5-7.7,16.68,16.68,0,0,1,3.9-.3C259,116.6,266.4,116.7,273.7,116.7Z" transform="translate(-46.6 -10)"/><path class="cls-2" d="M271.2,239.6c-3.5.4-6.7-.4-8.8-3.7a5.58,5.58,0,0,1-.7-1.6c-.7-3.3.1-6.1,3-8.1,3.1-2.1,11.2-2,13.9.3,2.5,2.2,3.5,5,2.3,8.3C279.3,239.3,275.5,239.9,271.2,239.6Z" transform="translate(-46.6 -10)"/><path class="cls-2" d="M272.1,267.4c2.5-.1,5.4-.1,7.4,2.4a7.27,7.27,0,0,1-5,12.1c-2,.1-4,.1-6.1,0a7.17,7.17,0,0,1-7-7.1,7.26,7.26,0,0,1,7-7.5C269.6,267.3,270.7,267.4,272.1,267.4Z" transform="translate(-46.6 -10)"/></svg>